<svg xmlns="http://www.w3.org/2000/svg"  viewBox="0 0 100 100" width="200px" height="200px"><rect width="48.754" height="10" x="26.123" y="35" fill="#ff8405" transform="rotate(-25.511 50.494 39.996)"/><rect width="9.999" height="48.995" x="45.75" y="36.253" fill="#ff8405" transform="rotate(-65.267 50.746 60.747)"/><circle cx="28.5" cy="50.5" r="13.5" fill="#4b4dff"/><path fill="#4343bf" d="M28.5,67C19.402,67,12,59.598,12,50.5S19.402,34,28.5,34S45,41.402,45,50.5S37.598,67,28.5,67z M28.5,40C22.71,40,18,44.71,18,50.5S22.71,61,28.5,61S39,56.29,39,50.5S34.29,40,28.5,40z"/><circle cx="72.5" cy="29.5" r="13.5" fill="#4b4dff"/><path fill="#4343bf" d="M72.5,46C63.402,46,56,38.598,56,29.5S63.402,13,72.5,13S89,20.402,89,29.5S81.598,46,72.5,46z M72.5,19C66.71,19,62,23.71,62,29.5S66.71,40,72.5,40S83,35.29,83,29.5S78.29,19,72.5,19z"/><circle cx="72.5" cy="70.5" r="13.5" fill="#4b4dff"/><path fill="#4343bf" d="M72.5,87C63.402,87,56,79.598,56,70.5S63.402,54,72.5,54S89,61.402,89,70.5S81.598,87,72.5,87z M72.5,60C66.71,60,62,64.71,62,70.5S66.71,81,72.5,81S83,76.29,83,70.5S78.29,60,72.5,60z"/><circle cx="28.5" cy="50.5" r="3.5" fill="#edf7f5"/><circle cx="72.5" cy="29.5" r="3.5" fill="#edf7f5"/><circle cx="72.5" cy="70.5" r="3.5" fill="#edf7f5"/></svg>